<svg width="111" height="100" viewBox="0 0 111 100" fill="none" xmlns="http://www.w3.org/2000/svg">
<g filter="url(#filter0_d_582_312)">
<rect x="11" y="11" width="89" height="78" rx="8" fill="white"/>
</g>
<path d="M68.6667 40.5H62.3333V37.3333C62.3333 35.5758 60.9242 34.1666 59.1667 34.1666H52.8333C51.0758 34.1666 49.6667 35.5758 49.6667 37.3333V40.5H43.3333C41.5758 40.5 40.1825 41.9091 40.1825 43.6666L40.1667 61.0833C40.1667 62.8408 41.5758 64.25 43.3333 64.25H68.6667C70.4242 64.25 71.8333 62.8408 71.8333 61.0833V43.6666C71.8333 41.9091 70.4242 40.5 68.6667 40.5ZM59.1667 40.5H52.8333V37.3333H59.1667V40.5Z" fill="#FFA800"/>
<defs>
<filter id="filter0_d_582_312" x="0" y="0" width="111" height="100" filterUnits="userSpaceOnUse" color-interpolation-filters="sRGB">
<feFlood flood-opacity="0" result="BackgroundImageFix"/>
<feColorMatrix in="SourceAlpha" type="matrix" values="0 0 0 0 0 0 0 0 0 0 0 0 0 0 0 0 0 0 127 0" result="hardAlpha"/>
<feOffset/>
<feGaussianBlur stdDeviation="5.5"/>
<feComposite in2="hardAlpha" operator="out"/>
<feColorMatrix type="matrix" values="0 0 0 0 0.383333 0 0 0 0 0.383333 0 0 0 0 0.383333 0 0 0 0.08 0"/>
<feBlend mode="normal" in2="BackgroundImageFix" result="effect1_dropShadow_582_312"/>
<feBlend mode="normal" in="SourceGraphic" in2="effect1_dropShadow_582_312" result="shape"/>
</filter>
</defs>
</svg>
