<svg width="52" height="50" viewBox="0 0 52 50" fill="none" xmlns="http://www.w3.org/2000/svg">
<rect width="52" height="50" rx="25" fill="#58BBE8" fill-opacity="0.3"/>
<path fill-rule="evenodd" clip-rule="evenodd" d="M16.4668 16.2C16.4668 15.6165 16.6986 15.0569 17.1112 14.6444C17.5237 14.2318 18.0833 14 18.6668 14H30.7037L35.5335 18.8297V33.8C35.5335 34.3835 35.3017 34.9431 34.8891 35.3556C34.4765 35.7682 33.9169 36 33.3335 36H18.6668C18.0833 36 17.5237 35.7682 17.1112 35.3556C16.6986 34.9431 16.4668 34.3835 16.4668 33.8V16.2ZM25.2668 19.8667H20.8668V21.3333H25.2668V19.8667ZM31.1335 24.2667H20.8668V25.7333H31.1335V24.2667ZM24.2475 29.9984C23.6549 30.1568 23.1915 30.61 23.0301 31.0984L21.6368 30.6349C21.9639 29.6567 22.8204 28.8632 23.8661 28.5816C24.9031 28.3029 26.0867 28.5376 27.1104 29.4777C27.4075 29.3906 27.7136 29.3379 28.0227 29.3208C28.8147 29.2783 29.5231 29.4777 30.1317 29.7315C30.5791 29.9177 31.0117 30.1524 31.3784 30.3504C31.4928 30.4149 31.6028 30.4736 31.704 30.5264C32.1777 30.7757 32.4373 30.8667 32.6001 30.8667V32.3333C32.0281 32.3333 31.4649 32.0576 31.022 31.8259C30.8885 31.7554 30.7555 31.6841 30.6231 31.6117C30.2805 31.4179 29.928 31.2422 29.5671 31.0852C29.0772 30.8799 28.5947 30.7596 28.1019 30.786C28.0283 30.7896 27.9549 30.7964 27.8819 30.8065L27.8833 30.8271C27.9229 31.3023 27.7264 31.6939 27.4727 31.9755C27.0063 32.4947 26.2451 32.7675 25.6731 32.8701C25.3767 32.9296 25.0728 32.942 24.7725 32.9068C24.6022 32.885 24.4378 32.8302 24.2885 32.7455C24.1724 32.6787 24.0725 32.5871 23.9957 32.4774C23.9189 32.3676 23.8671 32.2424 23.8441 32.1104C23.8081 31.8636 23.8662 31.6123 24.0069 31.4064C24.1134 31.25 24.243 31.1105 24.3912 30.9928C24.6699 30.7625 25.0732 30.5132 25.6144 30.2404L25.654 30.2111C25.446 30.0819 25.2139 29.9965 24.9719 29.9599C24.7298 29.9234 24.4828 29.9365 24.246 29.9984H24.2475Z" fill="#007CB4"/>
</svg>
