<svg width="52" height="50" viewBox="0 0 52 50" fill="none" xmlns="http://www.w3.org/2000/svg">
<rect width="52" height="50" rx="25" fill="#58BBE8" fill-opacity="0.3"/>
<path d="M25.7561 22.8462C24.4146 22.8462 23.2663 22.3641 22.311 21.4C21.3557 20.4359 20.878 19.2769 20.878 17.9231C20.878 16.5692 21.3557 15.4103 22.311 14.4462C23.2663 13.4821 24.4146 13 25.7561 13C27.0976 13 28.2459 13.4821 29.2012 14.4462C30.1565 15.4103 30.6341 16.5692 30.6341 17.9231C30.6341 19.2769 30.1565 20.4359 29.2012 21.4C28.2459 22.3641 27.0976 22.8462 25.7561 22.8462ZM39.2927 37L35.3902 33.0615C34.9634 33.3077 34.5061 33.5128 34.0183 33.6769C33.5305 33.841 33.0122 33.9231 32.4634 33.9231C30.939 33.9231 29.6431 33.3848 28.5756 32.3083C27.5089 31.231 26.9756 29.9231 26.9756 28.3846C26.9756 26.8462 27.5089 25.5383 28.5756 24.4609C29.6431 23.3844 30.939 22.8462 32.4634 22.8462C33.9878 22.8462 35.2837 23.3844 36.3512 24.4609C37.4179 25.5383 37.9512 26.8462 37.9512 28.3846C37.9512 28.9385 37.8699 29.4615 37.7073 29.9538C37.5447 30.4462 37.3415 30.9077 37.0976 31.3385L41 35.2769L39.2927 37ZM32.4634 31.4615C33.3171 31.4615 34.0386 31.1641 34.628 30.5692C35.2175 29.9744 35.5122 29.2462 35.5122 28.3846C35.5122 27.5231 35.2175 26.7949 34.628 26.2C34.0386 25.6051 33.3171 25.3077 32.4634 25.3077C31.6098 25.3077 30.8882 25.6051 30.2988 26.2C29.7093 26.7949 29.4146 27.5231 29.4146 28.3846C29.4146 29.2462 29.7093 29.9744 30.2988 30.5692C30.8882 31.1641 31.6098 31.4615 32.4634 31.4615ZM25.7866 24.0769C24.9329 25.3487 24.5061 26.7846 24.5061 28.3846C24.5061 29.9846 24.9329 31.4205 25.7866 32.6923H16V29.2769C16 28.5795 16.1728 27.9333 16.5183 27.3385C16.8638 26.7436 17.3415 26.2923 17.9512 25.9846C18.9878 25.4513 20.1565 25 21.4573 24.6308C22.7581 24.2615 24.2012 24.0769 25.7866 24.0769Z" fill="#007CB4"/>
</svg>
