<svg width="52" height="50" viewBox="0 0 52 50" fill="none" xmlns="http://www.w3.org/2000/svg">
<rect width="52" height="50" rx="25" fill="#58BBE8" fill-opacity="0.3"/>
<g clip-path="url(#clip0_1800_381)">
<path d="M26.131 25.6817C32.0552 25.6817 36.8795 24.3794 37.1948 22.7328V21.5353C36.32 21.9256 35.3605 22.0756 34.4113 21.9706C33.4622 21.8656 32.5564 21.5091 31.7839 20.9365C29.9142 21.2377 28.0238 21.3854 26.131 21.3781C23.2413 21.4351 20.3595 21.0491 17.582 20.233V18.7361C20.3603 19.5472 23.242 19.9281 26.131 19.8663C27.601 19.8698 29.0699 19.7848 30.5301 19.6118C29.9568 18.7869 29.6137 17.8185 29.5375 16.8101C29.4613 15.8016 29.6549 14.791 30.0975 13.8861C28.7265 13.7514 27.3628 13.6915 26.2263 13.6915C22.1425 13.6915 15.2285 14.3876 15.2285 17.0072V33.9222C15.2285 36.5343 22.1425 37.2378 26.2263 37.2378C30.3102 37.2378 37.2241 36.5418 37.2241 33.9222V30.0302C36.8795 31.6693 32.0625 32.9567 26.131 32.9567C23.2431 33.0259 20.3614 32.6525 17.582 31.849V30.3521C20.3614 31.1556 23.2431 31.529 26.131 31.4598C32.0625 31.4598 36.8795 30.1724 37.1948 28.5333V24.2297C36.8795 25.8763 32.0625 27.1786 26.131 27.1786C23.242 27.2405 20.3603 26.8596 17.582 26.0485V24.5516C20.3603 25.3626 23.242 25.7436 26.131 25.6817Z" fill="#007CB4"/>
<path d="M34.996 20.1282C37.0207 20.1282 38.6619 18.4527 38.6619 16.3859C38.6619 14.3191 37.0207 12.6437 34.996 12.6437C32.9714 12.6437 31.3301 14.3191 31.3301 16.3859C31.3301 18.4527 32.9714 20.1282 34.996 20.1282Z" fill="#007CB4"/>
</g>
<defs>
<clipPath id="clip0_1800_381">
<rect width="26.3947" height="26.9443" fill="white" transform="translate(13 12)"/>
</clipPath>
</defs>
</svg>
