<svg width="52" height="50" viewBox="0 0 52 50" fill="none" xmlns="http://www.w3.org/2000/svg">
<rect width="52" height="50" rx="25" fill="#58BBE8" fill-opacity="0.3"/>
<path d="M28.1102 22.5667L22.0685 18.2529C21.2227 17.6488 20.0989 17.6488 19.2652 18.2529L13.2235 22.5667C12.5831 23.0258 12.2085 23.7508 12.2085 24.5363V34.1667C12.2085 34.8313 12.7522 35.375 13.4168 35.375H18.2502V28.125H23.0835V35.375H27.9168C28.5814 35.375 29.1252 34.8313 29.1252 34.1667V24.5363C29.1252 23.7508 28.7506 23.0258 28.1102 22.5667Z" fill="#007CB4"/>
<path d="M36.4114 13.625H25.4639C24.1468 13.625 23.0835 14.6883 23.0835 16.0054L23.1922 16.1142C23.2889 16.1746 23.3856 16.2229 23.4822 16.2833L29.5239 20.5971C30.4422 21.2496 31.0947 22.2163 31.3847 23.2917H33.9585V25.7083H31.5418V28.125H33.9585V30.5417H31.5418V35.375H36.4114C37.7285 35.375 38.7918 34.3117 38.7918 32.9946V16.0054C38.7918 14.6883 37.7285 13.625 36.4114 13.625ZM33.9585 20.875H31.5418V18.4583H33.9585V20.875Z" fill="#007CB4"/>
</svg>
