<svg width="52" height="50" viewBox="0 0 52 50" fill="none" xmlns="http://www.w3.org/2000/svg">
<rect width="52" height="50" rx="25" fill="#58BBE8" fill-opacity="0.3"/>
<path d="M35.6812 14L28.7719 16.5945L31.2516 18.1578C26.8219 23.7359 20.4141 27.1719 15 28.4797L16.5337 31.2734C22.6172 29.2906 29.0578 25.7141 33.2062 19.3953L35.0953 20.5859L35.6812 14ZM36.0422 19.4703L35.8172 22.0391L33.4125 20.5203C33.3281 20.6469 33.2391 20.7687 33.15 20.8953V35.8766H36.8062V19.4703H36.0422ZM28.9828 25.4703C28.3875 25.9859 27.7734 26.4734 27.15 26.9328V35.8766H30.8062V25.4703H28.9828ZM23.1844 29.4078C22.5094 29.7641 21.8344 30.0922 21.15 30.4016V35.8766H24.8062V29.4078H23.1844ZM15.15 31.4703V35.8766H18.8062V31.4703H18.54C17.8453 31.7281 17.1511 31.9672 16.4611 32.1875L16.1302 32.2906L15.6802 31.4703H15.15Z" fill="#007CB4"/>
</svg>
