<svg width="52" height="50" viewBox="0 0 52 50" fill="none" xmlns="http://www.w3.org/2000/svg">
<rect width="52" height="50" rx="25" fill="#58BBE8" fill-opacity="0.3"/>
<path d="M14.75 27C13.375 27 12.25 25.875 12.25 24.5V18.25C12.25 16.875 13.375 15.75 14.75 15.75H24.75C26.125 15.75 27.25 16.875 27.25 18.25V24.5C27.25 25.875 26.125 27 24.75 27H22.25V30.75L18.5 27H14.75ZM37.25 34.5C38.625 34.5 39.75 33.375 39.75 32V25.75C39.75 24.375 38.625 23.25 37.25 23.25H29.75V24.5C29.75 27.25 27.5 29.5 24.75 29.5V32C24.75 33.375 25.875 34.5 27.25 34.5H29.75V38.25L33.5 34.5H37.25Z" fill="#007CB4"/>
</svg>
