<svg width="111" height="100" viewBox="0 0 111 100" fill="none" xmlns="http://www.w3.org/2000/svg">
<g filter="url(#filter0_d_582_316)">
<rect x="11" y="11" width="89" height="78" rx="8" fill="white"/>
</g>
<path d="M64.4582 41.5417H68.0415V37.9584H64.4582V41.5417ZM66.2498 66.6251C63.7714 66.6251 61.659 65.7519 59.9127 64.0057C58.1652 62.2582 57.2915 60.1452 57.2915 57.6667C57.2915 55.1883 58.1652 53.0753 59.9127 51.3278C61.659 49.5816 63.7714 48.7084 66.2498 48.7084C68.7283 48.7084 70.8413 49.5816 72.5888 51.3278C74.335 53.0753 75.2082 55.1883 75.2082 57.6667C75.2082 60.1452 74.335 62.2582 72.5888 64.0057C70.8413 65.7519 68.7283 66.6251 66.2498 66.6251ZM65.354 63.0417H67.1457V58.5626H71.6248V56.7709H67.1457V52.2917H65.354V56.7709H60.8748V58.5626H65.354V63.0417ZM75.2082 48.9324C74.0436 47.6782 72.6849 46.7298 71.1321 46.0872C69.5794 45.4458 67.9519 45.1251 66.2498 45.1251C65.9214 45.1251 65.6156 45.1322 65.3325 45.1466C65.0482 45.1621 64.7568 45.1997 64.4582 45.2595V43.3334L51.9165 34.2855V30.7917H75.2082V48.9324ZM35.7915 63.0417V45.1251L48.3332 36.1667L60.8748 45.1251V46.3345C58.7248 47.3497 56.9929 48.8947 55.679 50.9695C54.3651 53.0454 53.7082 55.2779 53.7082 57.6667C53.7082 58.5924 53.8055 59.511 54.0002 60.4223C54.1937 61.3325 54.4995 62.2056 54.9175 63.0417H51.9165V52.2917H44.7498V63.0417H35.7915Z" fill="#FFA800"/>
<defs>
<filter id="filter0_d_582_316" x="0" y="0" width="111" height="100" filterUnits="userSpaceOnUse" color-interpolation-filters="sRGB">
<feFlood flood-opacity="0" result="BackgroundImageFix"/>
<feColorMatrix in="SourceAlpha" type="matrix" values="0 0 0 0 0 0 0 0 0 0 0 0 0 0 0 0 0 0 127 0" result="hardAlpha"/>
<feOffset/>
<feGaussianBlur stdDeviation="5.5"/>
<feComposite in2="hardAlpha" operator="out"/>
<feColorMatrix type="matrix" values="0 0 0 0 0.383333 0 0 0 0 0.383333 0 0 0 0 0.383333 0 0 0 0.08 0"/>
<feBlend mode="normal" in2="BackgroundImageFix" result="effect1_dropShadow_582_316"/>
<feBlend mode="normal" in="SourceGraphic" in2="effect1_dropShadow_582_316" result="shape"/>
</filter>
</defs>
</svg>
