<svg width="111" height="100" viewBox="0 0 111 100" fill="none" xmlns="http://www.w3.org/2000/svg">
<g filter="url(#filter0_d_582_317)">
<rect x="11" y="11" width="89" height="78" rx="8" fill="white"/>
</g>
<path d="M72.9803 29.6653L60.8889 34.2057L65.2283 36.9415C57.4764 46.7032 46.2627 52.7161 36.7881 55.0047L39.4721 59.8938C50.1182 56.4239 61.3893 50.1649 68.649 39.1071L71.9549 41.1907L72.9803 29.6653ZM73.6119 39.2383L73.2182 43.7336L69.01 41.0758C68.8623 41.2973 68.7064 41.5106 68.5506 41.7321V67.9493H74.949V39.2383H73.6119ZM61.258 49.7383C60.2162 50.6407 59.1416 51.4938 58.0506 52.2977V67.9493H64.449V49.7383H61.258ZM51.1107 56.629C49.9295 57.2524 48.7482 57.8266 47.5506 58.368V67.9493H53.949V56.629H51.1107ZM37.0506 60.2383V67.9493H43.449V60.2383H42.9831C41.7674 60.6895 40.5525 61.1079 39.345 61.4934L38.7659 61.6739L37.9784 60.2383H37.0506Z" fill="#FFA800"/>
<defs>
<filter id="filter0_d_582_317" x="0" y="0" width="111" height="100" filterUnits="userSpaceOnUse" color-interpolation-filters="sRGB">
<feFlood flood-opacity="0" result="BackgroundImageFix"/>
<feColorMatrix in="SourceAlpha" type="matrix" values="0 0 0 0 0 0 0 0 0 0 0 0 0 0 0 0 0 0 127 0" result="hardAlpha"/>
<feOffset/>
<feGaussianBlur stdDeviation="5.5"/>
<feComposite in2="hardAlpha" operator="out"/>
<feColorMatrix type="matrix" values="0 0 0 0 0.383333 0 0 0 0 0.383333 0 0 0 0 0.383333 0 0 0 0.08 0"/>
<feBlend mode="normal" in2="BackgroundImageFix" result="effect1_dropShadow_582_317"/>
<feBlend mode="normal" in="SourceGraphic" in2="effect1_dropShadow_582_317" result="shape"/>
</filter>
</defs>
</svg>
