<svg width="33" height="32" viewBox="0 0 33 32" fill="none" xmlns="http://www.w3.org/2000/svg">
<path d="M17.6455 0.00196861C18.8131 -0.00251169 19.9806 0.00922274 21.1479 0.0371683L21.4582 0.0483681C21.8166 0.0611679 22.1702 0.0771677 22.5974 0.0963674C24.2998 0.176366 25.4614 0.445163 26.4806 0.840358C27.5366 1.24675 28.4262 1.79715 29.3158 2.68673C30.1291 3.48609 30.7587 4.45303 31.1605 5.5203C31.5557 6.53948 31.8245 7.70267 31.9045 9.40505C31.9237 9.83064 31.9397 10.1858 31.9525 10.5442L31.9621 10.8546C31.9905 12.0213 32.0028 13.1884 31.9989 14.3554L32.0005 15.549V17.6449C32.0045 18.8125 31.9922 19.9801 31.9637 21.1473L31.9541 21.4577C31.9413 21.8161 31.9253 22.1697 31.9061 22.5969C31.8261 24.2993 31.5541 25.4608 31.1605 26.48C30.76 27.5484 30.1303 28.5162 29.3158 29.3152C28.5157 30.1285 27.5483 30.758 26.4806 31.16C25.4614 31.5552 24.2998 31.824 22.5974 31.904C22.1702 31.9232 21.8166 31.9392 21.4582 31.952L21.1479 31.9616C19.9806 31.99 18.8131 32.0023 17.6455 31.9984L16.4519 32H14.3575C13.19 32.0039 12.0224 31.9916 10.8552 31.9632L10.5448 31.9536C10.165 31.9398 9.78523 31.9238 9.4056 31.9056C7.70322 31.8256 6.54164 31.5536 5.52085 31.16C4.45316 30.7589 3.48606 30.1293 2.68729 29.3152C1.87297 28.5157 1.24287 27.5481 0.840913 26.48C0.445718 25.4608 0.176921 24.2993 0.0969219 22.5969C0.0791028 22.2172 0.0631028 21.8375 0.0489225 21.4577L0.0409228 21.1473C0.0114249 19.9801 -0.00190965 18.8125 0.000923189 17.6449V14.3554C-0.0035423 13.1884 0.00819213 12.0213 0.0361229 10.8546L0.0473227 10.5442C0.0601225 10.1858 0.0761222 9.83064 0.095322 9.40505C0.175321 7.70107 0.444117 6.54108 0.839312 5.5203C1.2415 4.4525 1.87284 3.48584 2.68889 2.68833C3.48711 1.87355 4.4536 1.24287 5.52085 0.840358C6.54164 0.445163 7.70162 0.176366 9.4056 0.0963674L10.5448 0.0483681L10.8552 0.0403684C12.0219 0.0108853 13.1889 -0.00244933 14.3559 0.000368744L17.6455 0.00196861ZM16.0007 8.00187C14.9407 7.98687 13.8884 8.1827 12.9047 8.57797C11.9211 8.97323 11.0258 9.56005 10.2709 10.3043C9.51607 11.0486 8.91665 11.9355 8.50751 12.9134C8.09838 13.8914 7.88769 14.9409 7.88769 16.001C7.88769 17.061 8.09838 18.1106 8.50751 19.0885C8.91665 20.0665 9.51607 20.9533 10.2709 21.6976C11.0258 22.4419 11.9211 23.0287 12.9047 23.424C13.8884 23.8192 14.9407 24.0151 16.0007 24.0001C18.1224 24.0001 20.1572 23.1572 21.6575 21.6569C23.1578 20.1567 24.0006 18.1219 24.0006 16.0002C24.0006 13.8785 23.1578 11.8437 21.6575 10.3434C20.1572 8.84311 18.1224 8.00187 16.0007 8.00187ZM16.0007 11.2018C16.6383 11.1901 17.2719 11.3055 17.8644 11.5414C18.4569 11.7772 18.9964 12.1288 19.4515 12.5755C19.9066 13.0222 20.2681 13.5551 20.515 14.1431C20.7618 14.7311 20.889 15.3624 20.8891 16.0001C20.8892 16.6379 20.7622 17.2692 20.5156 17.8573C20.269 18.4454 19.9076 18.9784 19.4527 19.4253C18.9977 19.8722 18.4583 20.2239 17.8659 20.46C17.2734 20.696 16.6399 20.8116 16.0023 20.8001C14.7293 20.8001 13.5084 20.2944 12.6082 19.3942C11.7081 18.4941 11.2024 17.2732 11.2024 16.0002C11.2024 14.7271 11.7081 13.5063 12.6082 12.6061C13.5084 11.7059 14.7293 11.2002 16.0023 11.2002L16.0007 11.2018ZM24.4006 5.6019C23.8844 5.62256 23.3963 5.84213 23.0384 6.21464C22.6805 6.58715 22.4806 7.08369 22.4806 7.60027C22.4806 8.11685 22.6805 8.61339 23.0384 8.9859C23.3963 9.35841 23.8844 9.57799 24.4006 9.59865C24.931 9.59865 25.4397 9.38793 25.8148 9.01287C26.1899 8.6378 26.4006 8.1291 26.4006 7.59867C26.4006 7.06824 26.1899 6.55954 25.8148 6.18448C25.4397 5.80941 24.931 5.5987 24.4006 5.5987V5.6019Z" fill="#007CB4"/>
</svg>
