<svg width="26" height="26" viewBox="0 0 26 26" fill="none" xmlns="http://www.w3.org/2000/svg">
<g clip-path="url(#clip0_74_275)">
<path d="M25.4179 25.4242V25.4232H25.4243V16.0988C25.4243 11.5373 24.4423 8.02344 19.1095 8.02344C16.5459 8.02344 14.8256 9.43025 14.1232 10.764H14.0491V8.44929H8.9928V25.4232H14.2577V17.0183C14.2577 14.8054 14.6772 12.6655 17.4178 12.6655C20.118 12.6655 20.1583 15.191 20.1583 17.1603V25.4242H25.4179Z" fill="#007CB4"/>
<path d="M0.419678 8.45068H5.69098V25.4246H0.419678V8.45068Z" fill="#007CB4"/>
<path d="M3.05303 0C1.36762 0 0 1.36762 0 3.05303C0 4.73845 1.36762 6.13467 3.05303 6.13467C4.73845 6.13467 6.10607 4.73845 6.10607 3.05303C6.10501 1.36762 4.73739 0 3.05303 0V0Z" fill="#007CB4"/>
</g>
<defs>
<clipPath id="clip0_74_275">
<rect width="25.4243" height="25.4243" fill="white"/>
</clipPath>
</defs>
</svg>
