<svg width="28" height="31" viewBox="0 0 28 31" fill="none" xmlns="http://www.w3.org/2000/svg">
<path d="M21.4244 4.85667C20.2472 3.51268 19.5984 1.78669 19.5989 0H14.2772V21.3556C14.2362 22.5112 13.7483 23.6058 12.9163 24.4089C12.0842 25.212 10.973 25.6609 9.81667 25.6611C7.37111 25.6611 5.33889 23.6633 5.33889 21.1833C5.33889 18.2211 8.19778 15.9994 11.1428 16.9122V11.47C5.20111 10.6778 0 15.2933 0 21.1833C0 26.9183 4.75333 31 9.79945 31C15.2072 31 19.5989 26.6083 19.5989 21.1833V10.3506C21.7568 11.9003 24.3477 12.7318 27.0044 12.7272V7.40556C27.0044 7.40556 23.7667 7.56056 21.4244 4.85667Z" fill="#007CB4"/>
</svg>
