<svg width="26" height="26" viewBox="0 0 26 26" fill="none" xmlns="http://www.w3.org/2000/svg">
<g clip-path="url(#clip0_74_279)">
<path d="M23.3062 7.5349C24.3401 6.80077 25.2099 5.88444 25.9186 4.82933V4.82827C24.9726 5.24248 23.9662 5.5179 22.9153 5.65138C23.9958 5.00624 24.8211 3.99245 25.2088 2.77102C24.2014 3.37167 23.089 3.79541 21.9036 4.0327C20.947 3.01361 19.5837 2.3833 18.0963 2.3833C15.2107 2.3833 12.8875 4.72551 12.8875 7.59634C12.8875 8.00949 12.9225 8.40674 13.0083 8.78493C8.67559 8.57306 4.84076 6.49674 2.26443 3.33247C1.81527 4.11321 1.55043 5.00624 1.55043 5.96707C1.55043 7.77219 2.47948 9.3718 3.86616 10.2987C3.02822 10.2828 2.20722 10.0392 1.51123 9.65677V9.71397C1.51123 12.2469 3.31742 14.3507 5.68717 14.8359C5.26238 14.9524 4.8005 15.0075 4.32062 15.0075C3.98693 15.0075 3.65005 14.9885 3.33437 14.9185C4.00917 16.9821 5.92659 18.5002 8.20418 18.55C6.43084 19.9367 4.17867 20.7725 1.74111 20.7725C1.3142 20.7725 0.904229 20.7534 0.494263 20.7015C2.80364 22.1899 5.53887 23.0405 8.4902 23.0405C17.6885 23.0405 23.6833 15.3666 23.3062 7.5349Z" fill="#007CB4"/>
</g>
<defs>
<clipPath id="clip0_74_279">
<rect width="25.4243" height="25.4243" fill="white" transform="translate(0.494324)"/>
</clipPath>
</defs>
</svg>
