<svg width="26" height="26" viewBox="0 0 26 26" fill="none" xmlns="http://www.w3.org/2000/svg">
<g clip-path="url(#clip0_74_281)">
<path d="M10.9586 17.9231C11.0264 17.8659 11.0953 17.8066 11.1588 17.7441C7.61958 21.2167 1.84826 19.5959 0.495476 14.6985V14.6911C-1.31918 8.0278 6.33247 2.96624 11.1567 7.62736C11.2574 7.73436 17.9217 14.8415 17.498 14.3892H17.517C18.5118 15.4146 19.9504 15.3023 20.8063 14.4061C21.7269 13.4442 21.7597 11.8743 20.8561 10.8965C19.4292 9.25346 16.6272 10.4812 16.8952 12.9167L15.2914 11.2832L13.4311 9.50452C13.8146 8.74286 14.3178 8.07653 14.9481 7.50024C14.8803 7.55851 14.8115 7.61889 14.7479 7.67927C18.301 4.19402 24.068 5.85296 25.4113 10.7291V10.7355C27.2302 17.3977 19.5701 22.4593 14.75 17.7981C14.6515 17.6922 7.99141 10.5406 8.41303 10.994L8.40879 10.9781C8.39184 10.9781 8.39184 10.9622 8.39184 10.9622C7.34732 9.88483 5.93098 10.0469 5.10257 10.9293C4.18094 11.8912 4.14916 13.4612 5.0549 14.4241C6.41934 16.029 9.28169 14.8394 9.01262 12.3552C9.11643 12.4622 12.7087 16.1498 12.4799 15.9157C11.8983 17.0757 11.2478 17.6085 10.9586 17.9231Z" fill="#007CB4"/>
</g>
<defs>
<clipPath id="clip0_74_281">
<rect width="25.4243" height="25.4243" fill="white" transform="translate(0.241516)"/>
</clipPath>
</defs>
</svg>
