<svg width="22" height="22" viewBox="0 0 22 22" fill="none" xmlns="http://www.w3.org/2000/svg">
<path d="M8.13541 19.3418L15.8583 11.6418C15.95 11.5501 16.0148 11.4508 16.0527 11.3439C16.0912 11.2369 16.1104 11.1223 16.1104 11.0001C16.1104 10.8779 16.0912 10.7633 16.0527 10.6564C16.0148 10.5494 15.95 10.4501 15.8583 10.3584L8.13541 2.63553C7.92152 2.42164 7.65416 2.3147 7.33333 2.3147C7.0125 2.3147 6.7375 2.42928 6.50833 2.65845C6.27916 2.88761 6.16458 3.15498 6.16458 3.46053C6.16458 3.76609 6.27916 4.03345 6.50833 4.26261L13.2458 11.0001L6.50833 17.7376C6.29444 17.9515 6.1875 18.2149 6.1875 18.5278C6.1875 18.8413 6.30208 19.1126 6.53125 19.3418C6.76041 19.5709 7.02777 19.6855 7.33333 19.6855C7.63888 19.6855 7.90625 19.5709 8.13541 19.3418Z" fill="black"/>
</svg>
