<svg width="48" height="48" viewBox="0 0 48 48" fill="none" xmlns="http://www.w3.org/2000/svg">
<circle opacity="0.7" cx="24" cy="24" r="24" fill="white"/>
<path d="M18.5 32C16.9833 32 15.6877 31.475 14.613 30.425C13.5377 29.375 13 28.0917 13 26.575C13 25.275 13.3917 24.1167 14.175 23.1C14.9583 22.0833 15.9833 21.4333 17.25 21.15C17.6333 19.8 18.346 18.6667 19.388 17.75C20.4293 16.8333 21.6333 16.275 23 16.075V24.15L22.1 23.275C21.9167 23.0917 21.6877 23 21.413 23C21.1377 23 20.9 23.1 20.7 23.3C20.5167 23.4833 20.425 23.7167 20.425 24C20.425 24.2833 20.5167 24.5167 20.7 24.7L23.3 27.3C23.5 27.5 23.7333 27.6 24 27.6C24.2667 27.6 24.5 27.5 24.7 27.3L27.3 24.7C27.4833 24.5167 27.5793 24.2873 27.588 24.012C27.596 23.7373 27.5 23.5 27.3 23.3C27.1167 23.1167 26.8877 23.0207 26.613 23.012C26.3377 23.004 26.1 23.0917 25.9 23.275L25 24.15V16.075C26.7167 16.3083 28.146 17.079 29.288 18.387C30.4293 19.6957 31 21.2333 31 23C32.15 23.1333 33.1043 23.629 33.863 24.487C34.621 25.3457 35 26.35 35 27.5C35 28.75 34.5627 29.8127 33.688 30.688C32.8127 31.5627 31.75 32 30.5 32H18.5Z" fill="#023555"/>
</svg>
