<svg width="80" height="80" viewBox="0 0 80 80" fill="none" xmlns="http://www.w3.org/2000/svg">
<circle cx="40" cy="40" r="40" fill="#327194"/>
<path d="M51.75 41.5312L54.6778 47.2015L60.9375 48.111L56.3438 52.25L57.5243 58.375L51.75 54.9297L45.9757 58.375L47.1562 52.25L42.5625 48.111L48.9938 47.2015L51.75 41.5312ZM24.1875 40H33.375V43.0625H24.1875V40ZM24.1875 33.875H39.5V36.9375H24.1875V33.875ZM24.1875 27.75H39.5V30.8125H24.1875V27.75Z" fill="white"/>
<path d="M39.5 55.3125H21.125V24.6875H57.875V40H60.9375V24.6875C60.9375 23.8753 60.6148 23.0963 60.0405 22.522C59.4662 21.9477 58.6872 21.625 57.875 21.625H21.125C20.3128 21.625 19.5338 21.9477 18.9595 22.522C18.3852 23.0963 18.0625 23.8753 18.0625 24.6875V55.3125C18.0625 56.1247 18.3852 56.9037 18.9595 57.478C19.5338 58.0523 20.3128 58.375 21.125 58.375H39.5V55.3125Z" fill="white"/>
</svg>
