<svg width="80" height="81" viewBox="0 0 80 81" fill="none" xmlns="http://www.w3.org/2000/svg">
<circle cx="40" cy="40.5" r="40" fill="#327194"/>
<path d="M55.8333 28.25H32.0833C30.9908 28.25 30.1358 28.8042 29.5658 29.6433L21 42.5L29.5658 55.3408C30.1358 56.18 31.1017 56.75 32.1942 56.75H55.8333C57.575 56.75 59 55.325 59 53.5833V31.4167C59 29.675 57.575 28.25 55.8333 28.25ZM35.25 44.875C33.9358 44.875 32.875 43.8142 32.875 42.5C32.875 41.1858 33.9358 40.125 35.25 40.125C36.5642 40.125 37.625 41.1858 37.625 42.5C37.625 43.8142 36.5642 44.875 35.25 44.875ZM43.1667 44.875C41.8525 44.875 40.7917 43.8142 40.7917 42.5C40.7917 41.1858 41.8525 40.125 43.1667 40.125C44.4808 40.125 45.5417 41.1858 45.5417 42.5C45.5417 43.8142 44.4808 44.875 43.1667 44.875ZM51.0833 44.875C49.7692 44.875 48.7083 43.8142 48.7083 42.5C48.7083 41.1858 49.7692 40.125 51.0833 40.125C52.3975 40.125 53.4583 41.1858 53.4583 42.5C53.4583 43.8142 52.3975 44.875 51.0833 44.875Z" fill="white"/>
</svg>
