<svg width="80" height="80" viewBox="0 0 80 80" fill="none" xmlns="http://www.w3.org/2000/svg">
<circle cx="40" cy="40" r="40" fill="#327194"/>
<g clip-path="url(#clip0_108_337)">
<path d="M37.125 46.9948C37.125 47.8064 36.8892 48.4963 36.4175 49.0645C35.9458 49.6326 35.3805 49.9167 34.7217 49.9167H25.1533C24.4945 49.9167 23.9292 49.6326 23.4575 49.0645C22.9858 48.4963 22.75 47.8064 22.75 46.9948C22.75 46.1979 22.8062 45.4564 22.9185 44.7702C23.0308 44.084 23.2142 43.4199 23.4688 42.778C23.7233 42.1361 24.1051 41.6306 24.6143 41.2617C25.1234 40.8928 25.7298 40.7083 26.4336 40.7083C27.3919 41.6528 28.5599 42.125 29.9375 42.125C31.3151 42.125 32.4831 41.6528 33.4414 40.7083C34.1452 40.7083 34.7516 40.8928 35.2607 41.2617C35.7699 41.6306 36.1517 42.1361 36.4062 42.778C36.6608 43.4199 36.8442 44.084 36.9565 44.7702C37.0688 45.4564 37.125 46.1979 37.125 46.9948ZM34.25 37.1667C34.25 38.3472 33.8307 39.3507 32.9922 40.1771C32.1536 41.0035 31.1354 41.4167 29.9375 41.4167C28.7396 41.4167 27.7214 41.0035 26.8828 40.1771C26.0443 39.3507 25.625 38.3472 25.625 37.1667C25.625 35.9861 26.0443 34.9826 26.8828 34.1562C27.7214 33.3299 28.7396 32.9167 29.9375 32.9167C31.1354 32.9167 32.1536 33.3299 32.9922 34.1562C33.8307 34.9826 34.25 35.9861 34.25 37.1667ZM57.25 46.375V47.7917C57.25 47.9983 57.1826 48.168 57.0479 48.3008C56.9131 48.4336 56.7409 48.5 56.5312 48.5H40.7188C40.5091 48.5 40.3369 48.4336 40.2021 48.3008C40.0674 48.168 40 47.9983 40 47.7917V46.375C40 46.1684 40.0674 45.9987 40.2021 45.8659C40.3369 45.7331 40.5091 45.6667 40.7188 45.6667H56.5312C56.7409 45.6667 56.9131 45.7331 57.0479 45.8659C57.1826 45.9987 57.25 46.1684 57.25 46.375ZM48.625 40.7083V42.125C48.625 42.3316 48.5576 42.5013 48.4229 42.6341C48.2881 42.7669 48.1159 42.8333 47.9062 42.8333H40.7188C40.5091 42.8333 40.3369 42.7669 40.2021 42.6341C40.0674 42.5013 40 42.3316 40 42.125V40.7083C40 40.5017 40.0674 40.332 40.2021 40.1992C40.3369 40.0664 40.5091 40 40.7188 40H47.9062C48.1159 40 48.2881 40.0664 48.4229 40.1992C48.5576 40.332 48.625 40.5017 48.625 40.7083ZM57.25 40.7083V42.125C57.25 42.3316 57.1826 42.5013 57.0479 42.6341C56.9131 42.7669 56.7409 42.8333 56.5312 42.8333H52.2188C52.0091 42.8333 51.8369 42.7669 51.7021 42.6341C51.5674 42.5013 51.5 42.3316 51.5 42.125V40.7083C51.5 40.5017 51.5674 40.332 51.7021 40.1992C51.8369 40.0664 52.0091 40 52.2188 40H56.5312C56.7409 40 56.9131 40.0664 57.0479 40.1992C57.1826 40.332 57.25 40.5017 57.25 40.7083ZM57.25 35.0417V36.4583C57.25 36.6649 57.1826 36.8346 57.0479 36.9674C56.9131 37.1003 56.7409 37.1667 56.5312 37.1667H40.7188C40.5091 37.1667 40.3369 37.1003 40.2021 36.9674C40.0674 36.8346 40 36.6649 40 36.4583V35.0417C40 34.8351 40.0674 34.6654 40.2021 34.5326C40.3369 34.3997 40.5091 34.3333 40.7188 34.3333H56.5312C56.7409 34.3333 56.9131 34.3997 57.0479 34.5326C57.1826 34.6654 57.25 34.8351 57.25 35.0417ZM60.125 53.4583V28.6667H19.875V53.4583C19.875 53.6502 19.9461 53.8162 20.0884 53.9564C20.2306 54.0966 20.3991 54.1667 20.5938 54.1667H59.4062C59.6009 54.1667 59.7694 54.0966 59.9116 53.9564C60.0539 53.8162 60.125 53.6502 60.125 53.4583ZM63 26.5417V53.4583C63 54.4323 62.6481 55.2661 61.9443 55.9596C61.2406 56.6532 60.3945 57 59.4062 57H20.5938C19.6055 57 18.7594 56.6532 18.0557 55.9596C17.3519 55.2661 17 54.4323 17 53.4583V26.5417C17 25.5677 17.3519 24.7339 18.0557 24.0404C18.7594 23.3468 19.6055 23 20.5938 23H59.4062C60.3945 23 61.2406 23.3468 61.9443 24.0404C62.6481 24.7339 63 25.5677 63 26.5417Z" fill="white"/>
</g>
<defs>
<clipPath id="clip0_108_337">
<rect width="46" height="34" fill="white" transform="translate(17 23)"/>
</clipPath>
</defs>
</svg>
