<svg width="10" height="16" viewBox="0 0 10 16" fill="none" xmlns="http://www.w3.org/2000/svg">
<g clip-path="url(#clip0_2772_841)">
<path d="M4.79515 13.1367C7.00199 13.1367 8.79098 10.8369 8.79098 7.99999C8.79098 5.16306 7.00199 2.86328 4.79515 2.86328C2.58831 2.86328 0.799316 5.16306 0.799316 7.99999C0.799316 10.8369 2.58831 13.1367 4.79515 13.1367Z" stroke="black" stroke-width="1.02734" stroke-linecap="round" stroke-linejoin="round"/>
<path d="M4.79496 11.082C6.11906 11.082 7.19246 9.70215 7.19246 7.99999C7.19246 6.29784 6.11906 4.91797 4.79496 4.91797C3.47086 4.91797 2.39746 6.29784 2.39746 7.99999C2.39746 9.70215 3.47086 11.082 4.79496 11.082Z" stroke="black" stroke-width="1.02734" stroke-linecap="round" stroke-linejoin="round"/>
<path d="M4.79477 9.02734C5.23614 9.02734 5.59394 8.56738 5.59394 8C5.59394 7.43261 5.23614 6.97266 4.79477 6.97266C4.3534 6.97266 3.99561 7.43261 3.99561 8C3.99561 8.56738 4.3534 9.02734 4.79477 9.02734Z" stroke="black" stroke-width="1.02734" stroke-linecap="round" stroke-linejoin="round"/>
</g>
<defs>
<clipPath id="clip0_2772_841">
<rect width="9.59" height="16" fill="white"/>
</clipPath>
</defs>
</svg>
