<svg width="76" height="74" viewBox="0 0 76 74" fill="none" xmlns="http://www.w3.org/2000/svg">
<rect width="76" height="74" rx="37" fill="#58BBE8" fill-opacity="0.3"/>
<path d="M41.6 34.3334L33.2667 28.3834C32.1 27.55 30.55 27.55 29.4 28.3834L21.0667 34.3334C20.1833 34.9667 19.6667 35.9667 19.6667 37.05V50.3334C19.6667 51.25 20.4167 52 21.3333 52H28V42H34.6667V52H41.3333C42.25 52 43 51.25 43 50.3334V37.05C43 35.9667 42.4833 34.9667 41.6 34.3334Z" fill="#007CB4"/>
<path d="M53.05 22H37.95C36.1333 22 34.6667 23.4667 34.6667 25.2833L34.8167 25.4333C34.95 25.5167 35.0833 25.5833 35.2167 25.6667L43.55 31.6167C44.8167 32.5167 45.7167 33.85 46.1167 35.3333H49.6667V38.6667H46.3333V42H49.6667V45.3333H46.3333V52H53.05C54.8667 52 56.3333 50.5333 56.3333 48.7167V25.2833C56.3333 23.4667 54.8667 22 53.05 22ZM49.6667 32H46.3333V28.6667H49.6667V32Z" fill="#007CB4"/>
</svg>
