<svg width="76" height="74" viewBox="0 0 76 74" fill="none" xmlns="http://www.w3.org/2000/svg">
<rect width="76" height="74" rx="37" fill="#58BBE8" fill-opacity="0.3"/>
<g clip-path="url(#clip0_582_306)">
<path d="M37.915 40.7723C45.5461 40.7723 51.7606 39.0806 52.1667 36.9417V35.3862C51.0398 35.8931 49.8038 36.088 48.5812 35.9516C47.3586 35.8152 46.1918 35.3521 45.1967 34.6084C42.7882 34.9996 40.3532 35.1914 37.915 35.182C34.1926 35.256 30.4806 34.7546 26.9028 33.6945V31.75C30.4815 32.8036 34.1936 33.2985 37.915 33.2181C39.8086 33.2227 41.7007 33.1123 43.5817 32.8875C42.8431 31.816 42.4011 30.5581 42.303 29.2482C42.2049 27.9382 42.4542 26.6255 43.0244 25.45C41.2583 25.275 39.5017 25.1973 38.0378 25.1973C32.7772 25.1973 23.8711 26.1014 23.8711 29.5042V51.4764C23.8711 54.8695 32.7772 55.7834 38.0378 55.7834C43.2983 55.7834 52.2044 54.8792 52.2044 51.4764V46.4209C51.7606 48.55 45.5556 50.2223 37.915 50.2223C34.195 50.3121 30.483 49.8271 26.9028 48.7834V46.8389C30.483 47.8827 34.195 48.3677 37.915 48.2778C45.5556 48.2778 51.7606 46.6056 52.1667 44.4764V38.8862C51.7606 41.025 45.5556 42.7167 37.915 42.7167C34.1936 42.7971 30.4815 42.3022 26.9028 41.2487V39.3042C30.4815 40.3578 34.1936 40.8526 37.915 40.7723Z" fill="#007CB4"/>
<path d="M49.3333 33.5583C51.9413 33.5583 54.0556 31.3819 54.0556 28.6972C54.0556 26.0125 51.9413 23.8361 49.3333 23.8361C46.7253 23.8361 44.6111 26.0125 44.6111 28.6972C44.6111 31.3819 46.7253 33.5583 49.3333 33.5583Z" fill="#007CB4"/>
</g>
<defs>
<clipPath id="clip0_582_306">
<rect width="34" height="35" fill="white" transform="translate(21 23)"/>
</clipPath>
</defs>
</svg>
