<svg width="106" height="104" viewBox="0 0 106 104" fill="none" xmlns="http://www.w3.org/2000/svg">
<rect width="106" height="104" rx="17" fill="#58BBE8" fill-opacity="0.46"/>
<path d="M58.22 48.1334L46.1367 39.5059C44.445 38.2975 42.1975 38.2975 40.53 39.5059L28.4467 48.1334C27.1659 49.0517 26.4167 50.5017 26.4167 52.0725V71.3334C26.4167 72.6625 27.5042 73.75 28.8334 73.75H38.5V59.25H48.1667V73.75H57.8334C59.1625 73.75 60.25 72.6625 60.25 71.3334V52.0725C60.25 50.5017 59.5009 49.0517 58.22 48.1334Z" fill="white"/>
<path d="M74.8225 30.25H52.9275C50.2934 30.25 48.1667 32.3767 48.1667 35.0108L48.3842 35.2283C48.5775 35.3492 48.7709 35.4458 48.9642 35.5667L61.0475 44.1942C62.8842 45.4992 64.1892 47.4325 64.7692 49.5833H69.9167V54.4167H65.0834V59.25H69.9167V64.0833H65.0834V73.75H74.8225C77.4567 73.75 79.5834 71.6233 79.5834 68.9892V35.0108C79.5834 32.3767 77.4567 30.25 74.8225 30.25ZM69.9167 44.75H65.0834V39.9167H69.9167V44.75Z" fill="white"/>
</svg>
