<svg width="100" height="104" viewBox="0 0 100 104" fill="none" xmlns="http://www.w3.org/2000/svg">
<rect width="100" height="104" rx="17" fill="#58BBE8" fill-opacity="0.3"/>
<path d="M27.5 52C24.75 52 22.5 49.75 22.5 47V34.5C22.5 31.75 24.75 29.5 27.5 29.5H47.5C50.25 29.5 52.5 31.75 52.5 34.5V47C52.5 49.75 50.25 52 47.5 52H42.5V59.5L35 52H27.5ZM72.5 67C75.25 67 77.5 64.75 77.5 62V49.5C77.5 46.75 75.25 44.5 72.5 44.5H57.5V47C57.5 52.5 53 57 47.5 57V62C47.5 64.75 49.75 67 52.5 67H57.5V74.5L65 67H72.5Z" fill="#007CB4"/>
</svg>
