<svg width="106" height="104" viewBox="0 0 106 104" fill="none" xmlns="http://www.w3.org/2000/svg">
<rect width="106" height="104" rx="17" fill="#58BBE8" fill-opacity="0.3"/>
<g clip-path="url(#clip0_582_309)">
<path d="M52.88 57.3734C63.6533 57.3734 72.4267 55.0534 73 52.1201V49.9868C71.4091 50.682 69.6642 50.9493 67.9381 50.7622C66.2121 50.5751 64.5649 49.9401 63.16 48.9201C59.7599 49.4566 56.3222 49.7197 52.88 49.7068C47.6249 49.8083 42.3843 49.1207 37.3333 47.6668V45.0001C42.3857 46.445 47.6262 47.1237 52.88 47.0134C55.5533 47.0197 58.2246 46.8683 60.88 46.5601C59.8373 45.0906 59.2134 43.3655 59.0748 41.569C58.9363 39.7725 59.2883 37.9721 60.0933 36.3601C57.6 36.1201 55.12 36.0134 53.0533 36.0134C45.6267 36.0134 33.0533 37.2534 33.0533 41.9201V72.0534C33.0533 76.7068 45.6267 77.9601 53.0533 77.9601C60.48 77.9601 73.0533 76.7201 73.0533 72.0534V65.1201C72.4267 68.0401 63.6667 70.3334 52.88 70.3334C47.6283 70.4567 42.3877 69.7915 37.3333 68.3601V65.6934C42.3877 67.1248 47.6283 67.79 52.88 67.6668C63.6667 67.6668 72.4267 65.3734 73 62.4534V54.7868C72.4267 57.7201 63.6667 60.0401 52.88 60.0401C47.6262 60.1503 42.3857 59.4717 37.3333 58.0268V55.3601C42.3857 56.805 47.6262 57.4837 52.88 57.3734Z" fill="#007CB4"/>
<path d="M69 47.4801C72.6819 47.4801 75.6667 44.4953 75.6667 40.8134C75.6667 37.1315 72.6819 34.1467 69 34.1467C65.3181 34.1467 62.3333 37.1315 62.3333 40.8134C62.3333 44.4953 65.3181 47.4801 69 47.4801Z" fill="#007CB4"/>
</g>
<defs>
<clipPath id="clip0_582_309">
<rect width="48" height="48" fill="white" transform="translate(29 33)"/>
</clipPath>
</defs>
</svg>
