<svg width="39" height="39" viewBox="0 0 39 39" fill="none" xmlns="http://www.w3.org/2000/svg">
<path d="M20.5833 27.4138L30.6258 33.475L27.9608 22.0513L36.8333 14.365L25.1496 13.3575L20.5833 2.60001L16.0171 13.3575L4.33331 14.365L13.1896 22.0513L10.5408 33.475L20.5833 27.4138Z" fill="#FFA800"/>
<path d="M20.5833 27.4138L30.6258 33.475L27.9608 22.0513L36.8333 14.365L25.1496 13.3575L20.5833 2.60001L16.0171 13.3575L4.33331 14.365L13.1896 22.0513L10.5408 33.475L20.5833 27.4138Z" fill="#FFA800"/>
<path d="M20.5833 27.4138L30.6258 33.475L27.9608 22.0513L36.8333 14.365L25.1496 13.3575L20.5833 2.60001L20.5834 13.3575V14.365V22.0513L20.5833 23.4325L20.5833 27.4138Z" fill="white"/>
<path d="M20.5833 27.4138L30.6258 33.475L27.9608 22.0513L36.8333 14.365L25.1496 13.3575L20.5833 2.60001L20.5834 13.3575V14.365V22.0513L20.5833 23.4325L20.5833 27.4138Z" fill="white"/>
</svg>
