<svg width="76" height="74" viewBox="0 0 76 74" fill="none" xmlns="http://www.w3.org/2000/svg">
<rect width="76" height="74" rx="37" fill="#58BBE8" fill-opacity="0.3"/>
<path d="M22.125 53.875V23.125H32.674C32.9872 22.1285 33.5993 21.3096 34.5104 20.6684C35.4215 20.0283 36.4181 19.7083 37.5 19.7083C38.6389 19.7083 39.6571 20.0283 40.5545 20.6684C41.4508 21.3096 42.0556 22.1285 42.3688 23.125H52.875V35.0833H49.4583V26.5416H46.0417V31.6666H28.9583V26.5416H25.5417V50.4583H34.0833V53.875H22.125ZM53.9 57.2916L49.2875 52.6791C48.6896 53.0208 48.049 53.3055 47.3656 53.5333C46.6823 53.7611 45.9563 53.875 45.1875 53.875C43.0521 53.875 41.2367 53.1279 39.7413 51.6336C38.2471 50.1383 37.5 48.3229 37.5 46.1875C37.5 44.0521 38.2471 42.2367 39.7413 40.7413C41.2367 39.2471 43.0521 38.5 45.1875 38.5C47.3229 38.5 49.1383 39.2471 50.6337 40.7413C52.1279 42.2367 52.875 44.0521 52.875 46.1875C52.875 46.9562 52.7611 47.6823 52.5333 48.3656C52.3056 49.0489 52.0208 49.6896 51.6792 50.2875L56.2917 54.9L53.9 57.2916ZM45.1875 50.4583C46.3833 50.4583 47.3941 50.0455 48.2198 49.2198C49.0455 48.3941 49.4583 47.3833 49.4583 46.1875C49.4583 44.9916 49.0455 43.9809 48.2198 43.1552C47.3941 42.3295 46.3833 41.9166 45.1875 41.9166C43.9917 41.9166 42.9809 42.3295 42.1552 43.1552C41.3295 43.9809 40.9167 44.9916 40.9167 46.1875C40.9167 47.3833 41.3295 48.3941 42.1552 49.2198C42.9809 50.0455 43.9917 50.4583 45.1875 50.4583ZM37.5 26.5416C37.984 26.5416 38.39 26.3776 38.718 26.0496C39.0449 25.7228 39.2083 25.3173 39.2083 24.8333C39.2083 24.3493 39.0449 23.9433 38.718 23.6153C38.39 23.2884 37.984 23.125 37.5 23.125C37.016 23.125 36.6105 23.2884 36.2837 23.6153C35.9557 23.9433 35.7917 24.3493 35.7917 24.8333C35.7917 25.3173 35.9557 25.7228 36.2837 26.0496C36.6105 26.3776 37.016 26.5416 37.5 26.5416Z" fill="#007CB4"/>
</svg>
